<?xml version="1.0" encoding="UTF-8"?>
<svg width="684px" height="684px" viewBox="0 0 684 684" version="1.1" xmlns="http://www.w3.org/2000/svg" xmlns:xlink="http://www.w3.org/1999/xlink">
    <title>logo</title>
    <g id="Page-1" stroke="none" stroke-width="1" fill="none" fill-rule="evenodd">
        <g id="logo" transform="translate(0.086934, 0.805211)" fill="#6361EC" fill-rule="nonzero">
            <path d="M0.243065508,436.394789 C40.1430655,436.394789 95.1430655,435.994789 131.943066,435.994789 C140.043066,425.194789 148.743066,415.194789 156.243066,408.994789 C181.143066,388.394789 214.343066,380.494789 245.543066,389.794789 C312.043066,409.494789 333.843066,492.594789 277.543066,536.894789 C268.643066,543.894789 260.343066,551.694789 246.943066,555.294789 L246.943066,683.094789 L449.943066,683.094789 L449.943066,555.194789 C449.943066,555.194789 409.143066,541.994789 398.243066,522.994789 C358.543066,474.594789 387.043066,397.594789 449.943066,388.294789 L449.943066,294.894789 C438.143066,293.194789 427.243066,287.894789 417.543066,281.094789 C357.043066,238.594789 373.943066,151.094789 444.243066,130.294789 C474.943066,121.194789 511.543066,128.894789 534.943066,151.094789 C542.143066,158.294789 558.643066,180.994789 560.543066,184.394789 L682.943066,184.394789 C682.043066,163.594789 677.543066,142.494789 670.143066,123.094789 C663.843066,106.394789 655.043066,90.6947892 644.343066,76.3947892 C635.443066,64.4947892 625.043066,53.4947892 613.543066,44.0947892 C552.743066,-5.00521081 481.743066,0.0947891908 408.243066,0.194789191 L246.943066,0.194789191 L246.943066,126.494789 C291.443066,152.194789 309.443066,178.494789 310.843066,208.394789 C313.243066,307.394789 162.043066,330.194789 130.843066,237.694789 C118.843066,175.294789 155.143066,137.594789 196.843066,126.494789 L196.843066,0.194789191 C173.943066,0.194789191 151.243066,2.99478919 129.443066,10.5947892 C111.843066,16.6947892 95.3430655,25.1947892 80.1430655,35.9947892 C68.0430655,44.4947892 56.9430655,54.5947892 47.2430655,65.6947892 C-5.05693449,125.794789 0.143065508,199.294789 0.143065508,273.694789 L0.143065508,435.894789 M499.943066,682.994789 C521.843066,681.294789 542.443066,677.294789 562.943066,669.094789 C579.743066,662.394789 595.343066,653.494789 609.643066,642.394789 C686.643066,582.694789 682.943066,495.994789 682.943066,408.294789 L682.943066,233.194789 C636.543066,233.194789 576.443066,233.194789 560.543066,233.194789 C542.243066,265.994789 528.043066,278.994789 499.943066,294.994789 L499.943066,388.394789 C520.943066,400.494789 533.343066,405.694789 546.043066,421.694789 C582.043066,468.194789 557.643066,541.494789 499.943066,555.194789 M0.243065508,485.694789 C0.243065508,596.694789 85.9430655,682.994789 196.943066,682.994789 C196.943066,640.194789 197.043066,597.194789 196.943066,555.194789 C189.543066,553.194789 175.743066,547.394789 169.543066,543.394789 C149.943066,530.994789 134.043066,509.794789 131.943066,485.694789 L0.243065508,485.694789 Z" id="Shape"></path>
        </g>
    </g>
</svg>